<?xml version="1.0" encoding="utf-8"?>
<!-- Generator: Adobe Illustrator 24.0.1, SVG Export Plug-In . SVG Version: 6.00 Build 0)  -->
<svg version="1.1" id="Layer_1" xmlns="http://www.w3.org/2000/svg" xmlns:xlink="http://www.w3.org/1999/xlink" x="0px" y="0px"
	 viewBox="0 0 300 300" style="enable-background:new 0 0 300 300;" xml:space="preserve">
<style type="text/css">
	.st0{fill:#6897BB;}
	.st1{display:none;}
	.st2{display:inline;}
	.st3{fill:#FFFFFF;}
	.st4{display:inline;fill:#FFFFFF;}
	.st5{display:inline;fill:#FFFFFF;stroke:#6897BB;stroke-width:4.8013;stroke-miterlimit:10;}
	.st6{display:inline;fill:none;stroke:#FFFFFF;stroke-width:2;stroke-miterlimit:10;}
	.st7{display:inline;fill:none;stroke:#FFFFFF;stroke-width:8;stroke-miterlimit:10;}
</style>
<g>
	<circle class="st0" cx="150" cy="150" r="146"/>
</g>
<g class="st1">
	<g class="st2">
		<path class="st0" d="M131,199.7c-6.4,0-11.6-5.2-11.6-11.6V63c0-6.4,5.2-11.6,11.6-11.6H188c6.4,0,11.6,5.2,11.6,11.6V188
			c0,6.4-5.2,11.6-11.6,11.6H131z"/>
		<path class="st3" d="M188,53.7c5.1,0,9.3,4.2,9.3,9.3V188c0,5.1-4.2,9.3-9.3,9.3H131c-5.1,0-9.3-4.2-9.3-9.3V63
			c0-5.1,4.2-9.3,9.3-9.3H188 M188,49H131c-7.7,0-14,6.3-14,14V188c0,7.7,6.3,14,14,14H188c7.7,0,14-6.3,14-14V63
			C202,55.3,195.7,49,188,49L188,49z"/>
	</g>
	<g class="st2">
		<path class="st0" d="M61,227c-5.5,0-10-4.5-10-10v-89c0-5.5,4.5-10,10-10h61c5.5,0,10,4.5,10,10v89c0,5.5-4.5,10-10,10H61z"/>
		<path class="st3" d="M122,120c4.4,0,8,3.6,8,8v89c0,4.4-3.6,8-8,8H61c-4.4,0-8-3.6-8-8v-89c0-4.4,3.6-8,8-8H122 M122,116H61
			c-6.6,0-12,5.4-12,12v89c0,6.6,5.4,12,12,12h61c6.6,0,12-5.4,12-12v-89C134,121.4,128.6,116,122,116L122,116z"/>
	</g>
	<g class="st2">
		<path class="st0" d="M156.1,231.2c-5.1,0-9.2-4.1-9.2-9.2v-50.9c0-5.1,4.1-9.2,9.2-9.2h89.9c5.1,0,9.2,4.1,9.2,9.2v50.9
			c0,5.1-4.1,9.2-9.2,9.2H156.1z"/>
		<path class="st3" d="M245.9,163.7c4.1,0,7.4,3.3,7.4,7.4v50.9c0,4.1-3.3,7.4-7.4,7.4h-89.9c-4.1,0-7.4-3.3-7.4-7.4v-50.9
			c0-4.1,3.3-7.4,7.4-7.4H245.9 M245.9,160h-89.9c-6.1,0-11.1,5-11.1,11.1v50.9c0,6.1,5,11.1,11.1,11.1h89.9c6.1,0,11.1-5,11.1-11.1
			v-50.9C257,165,252,160,245.9,160L245.9,160z"/>
	</g>
	<g class="st2">
		<rect x="63" y="131" class="st3" width="16" height="16"/>
	</g>
	<g class="st2">
		<rect x="101" y="131" class="st3" width="16" height="79"/>
	</g>
	<g class="st2">
		<rect x="63" y="152" class="st3" width="16" height="16"/>
	</g>
	<g class="st2">
		<rect x="208" y="170" class="st3" width="16" height="16"/>
	</g>
	<g class="st2">
		<rect x="229" y="170" class="st3" width="16" height="16"/>
	</g>
	<g class="st2">
		<rect x="229" y="191" class="st3" width="16" height="16"/>
	</g>
	<g class="st2">
		<rect x="63" y="173" class="st3" width="16" height="16"/>
	</g>
	<g class="st2">
		<rect x="63" y="194" class="st3" width="16" height="16"/>
	</g>
	<g class="st2">
		<rect x="141" y="63" class="st3" width="16" height="16"/>
	</g>
	<g class="st2">
		<rect x="162" y="63" class="st3" width="16" height="16"/>
	</g>
	<g class="st2">
		<rect x="141" y="84" class="st3" width="16" height="16"/>
	</g>
	<g class="st2">
		<rect x="162" y="84" class="st3" width="16" height="16"/>
	</g>
</g>
<g class="st1">
	<circle class="st4" cx="74.4" cy="98.4" r="26.4"/>
	<circle class="st4" cx="228" cy="98.4" r="26.4"/>
	<circle class="st4" cx="150" cy="115.2" r="32.4"/>
	<path class="st5" d="M48,193.2L42,174v16.8c0,0-12,0-12-9.6c0,0-13.2-45.6,28.8-50.4h42c0,0,13.2,3.6,16.8,12c0,0-36,4.8-34.8,52.8
		C82.8,195.6,54,195.6,48,193.2z"/>
	<path class="st5" d="M252,193.2l6-19.2v16.8c0,0,12,0,12-9.6c0,0,13.2-45.6-28.8-50.4h-42c0,0-13.2,3.6-16.8,12
		c0,0,36,4.8,34.8,52.8C217.2,195.6,246,195.6,252,193.2z"/>
	<path class="st5" d="M117.6,225.6c0,0,43.2,6,64.8,0l6-21.6v20.4c0,0,15.6-3.6,18-8.4c0,0,14.4-68.4-52.8-62.4h-16.8
		c0,0-51.6-4.8-43.2,64.8c0,0,8.4,4.8,14.4,4.8l9.6-15.6V225.6z"/>
</g>
<g class="st1">
	<polygon class="st4" points="247.3,97.1 54.5,97.1 54.5,86.8 150.9,51 247.3,86 	"/>
	<rect x="75" y="109" class="st4" width="41.8" height="69.9"/>
	<rect x="129.6" y="109" class="st4" width="41.8" height="69.9"/>
	<rect x="184.2" y="109" class="st4" width="41.8" height="69.9"/>
	<rect x="45.2" y="191.7" class="st4" width="210.7" height="11.1"/>
	<rect x="45.2" y="208.8" class="st4" width="210.7" height="16.2"/>
</g>
<g class="st1">
	<path class="st4" d="M149,255L149,255c-2.2,0-4-1.8-4-4V88c0-2.2,1.8-4,4-4l0,0c2.2,0,4,1.8,4,4v163C153,253.2,151.2,255,149,255z"
		/>
	<path class="st4" d="M85.5,123.7l-0.2-0.4c-0.8-2,0.1-4.3,2.1-5.1l120.8-50.3c2-0.8,4.3,0.1,5.1,2.1l0.2,0.4c0.8,2-0.1,4.3-2.1,5.1
		L90.6,125.8C88.7,126.6,86.4,125.6,85.5,123.7z"/>
	<path class="st4" d="M123,148c17.2,0-13.9,34-31.1,34s-48.3-34-31.1-34C104.2,148,73.9,148,123,148z"/>
	<line class="st6" x1="90" y1="122" x2="60" y2="153"/>
	<line class="st6" x1="125" y1="153" x2="90" y2="122"/>
	<path class="st4" d="M244,96c17.2,0-13.9,34-31.1,34s-48.3-34-31.1-34C225.2,96,194.9,96,244,96z"/>
	<line class="st6" x1="211" y1="70" x2="181" y2="101"/>
	<line class="st6" x1="246" y1="101" x2="211" y2="70"/>
</g>
<g class="st1">
	<path class="st7" d="M128,238H96c-6.6,0-12-5.4-12-12V63c0-6.6,5.4-12,12-12h119c6.6,0,12,5.4,12,12v87"/>
	<path class="st4" d="M190.5,94h-74c-3.6,0-6.5-2.9-6.5-6.5v0c0-3.6,2.9-6.5,6.5-6.5h74c3.6,0,6.5,2.9,6.5,6.5v0
		C197,91.1,194.1,94,190.5,94z"/>
	<path class="st4" d="M190.5,129h-74c-3.6,0-6.5-2.9-6.5-6.5v0c0-3.6,2.9-6.5,6.5-6.5h74c3.6,0,6.5,2.9,6.5,6.5v0
		C197,126.1,194.1,129,190.5,129z"/>
	<path class="st4" d="M159.8,163h-44.7c-2.8,0-5.2-2.3-5.2-5.2v-2.7c0-2.8,2.3-5.2,5.2-5.2h44.7c2.8,0,5.2,2.3,5.2,5.2v2.7
		C165,160.7,162.7,163,159.8,163z"/>
	<g class="st2">
		<path class="st0" d="M194.5,227.8c-2.1,0-4.3-0.3-6.4-0.8c-13-3.5-20.8-17-17.3-30c2.9-10.7,12.6-18.1,23.6-18.1
			c2.1,0,4.3,0.3,6.4,0.8c13,3.5,20.8,17,17.3,30C215.3,220.3,205.6,227.8,194.5,227.8z"/>
		<path class="st3" d="M194.5,175.2l0,7h0c1.8,0,3.7,0.2,5.5,0.7c5.4,1.5,9.9,4.9,12.7,9.8c2.8,4.9,3.5,10.5,2.1,15.9
			c-2.5,9.2-10.8,15.6-20.3,15.6c-1.8,0-3.7-0.2-5.5-0.7c-5.4-1.5-9.9-4.9-12.7-9.8c-2.8-4.9-3.5-10.5-2.1-15.9
			c2.5-9.2,10.8-15.6,20.3-15.6L194.5,175.2 M194.5,175.2c-12.4,0-23.7,8.2-27,20.7c-4,14.9,4.8,30.3,19.8,34.3c2.4,0.7,4.9,1,7.3,1
			c12.4,0,23.7-8.2,27-20.7c4-14.9-4.8-30.3-19.8-34.3C199.3,175.6,196.9,175.2,194.5,175.2L194.5,175.2z"/>
	</g>
	<g class="st2">
		<path class="st0" d="M229.9,247.3c-0.4,0-0.8-0.2-1-0.5l-18.9-22c-0.5-0.6-0.4-1.4,0.1-1.9l0.8-0.7c0.3-0.3,0.7-0.3,0.9-0.3
			c0.4,0,0.8,0.2,1,0.5l18.9,22c0.5,0.6,0.4,1.4-0.1,1.9l-0.8,0.7C230.5,247.3,230.1,247.3,229.9,247.3z"/>
		<path class="st3" d="M211.8,218.8c-1,0-2.1,0.4-2.9,1.1l-0.8,0.7c-1.9,1.6-2.1,4.4-0.5,6.3l18.9,22c0.9,1,2.1,1.5,3.4,1.5
			c1,0,2.1-0.4,2.9-1.1l0.8-0.7c1.9-1.6,2.1-4.4,0.5-6.3l-18.9-22C214.3,219.3,213.1,218.8,211.8,218.8L211.8,218.8z"/>
	</g>
</g>
<g>
	<g>
		<path class="st0" d="M209,211.5c-4.7,0-8.5-3.8-8.5-8.5V79c0-4.7,3.8-8.5,8.5-8.5h39c4.7,0,8.5,3.8,8.5,8.5v124
			c0,4.7-3.8,8.5-8.5,8.5H209z"/>
		<g>
			<path class="st3" d="M248,74c2.8,0,5,2.2,5,5v124c0,2.8-2.2,5-5,5h-39c-2.8,0-5-2.2-5-5V79c0-2.8,2.2-5,5-5H248 M248,67h-39
				c-6.6,0-12,5.4-12,12v124c0,6.6,5.4,12,12,12h39c6.6,0,12-5.4,12-12V79C260,72.4,254.6,67,248,67L248,67z"/>
		</g>
	</g>
	<g>
		<path class="st0" d="M64.1,195.5c-4.8,0-8.7-3.9-8.7-8.7V99.2c0-4.8,3.9-8.7,8.7-8.7h129.6c4.8,0,8.7,3.9,8.7,8.7v87.6
			c0,4.8-3.9,8.7-8.7,8.7H64.1z"/>
		<g>
			<path class="st3" d="M193.6,94c2.9,0,5.2,2.3,5.2,5.2v87.6c0,2.9-2.3,5.2-5.2,5.2H64.1c-2.9,0-5.2-2.3-5.2-5.2V99.2
				c0-2.9,2.3-5.2,5.2-5.2H193.6 M193.6,87H64.1c-6.7,0-12.2,5.5-12.2,12.2v87.6c0,6.7,5.5,12.2,12.2,12.2h129.6
				c6.7,0,12.2-5.5,12.2-12.2V99.2C205.8,92.5,200.3,87,193.6,87L193.6,87z"/>
		</g>
	</g>
	<g>
		<circle class="st3" cx="228.5" cy="195" r="6"/>
	</g>
	<path class="st3" d="M238,92h-19c-2.5,0-4.5-2-4.5-4.5v0c0-2.5,2-4.5,4.5-4.5h19c2.5,0,4.5,2,4.5,4.5v0C242.5,90,240.5,92,238,92z"
		/>
	<path class="st3" d="M238,106h-19c-2.5,0-4.5-2-4.5-4.5v0c0-2.5,2-4.5,4.5-4.5h19c2.5,0,4.5,2,4.5,4.5v0
		C242.5,104,240.5,106,238,106z"/>
	<path class="st3" d="M238,120h-19c-2.5,0-4.5-2-4.5-4.5v0c0-2.5,2-4.5,4.5-4.5h19c2.5,0,4.5,2,4.5,4.5v0
		C242.5,118,240.5,120,238,120z"/>
	<path class="st3" d="M186.8,206h-116c-2.5,0-4.5-2-4.5-4.5l0,0c0-2.5,2-4.5,4.5-4.5h116c2.5,0,4.5,2,4.5,4.5l0,0
		C191.3,204,189.3,206,186.8,206z"/>
	<path class="st3" d="M145.4,215h-33c-1.4,0-2.5-1.1-2.5-2.5v-4c0-1.4,1.1-2.5,2.5-2.5h33c1.4,0,2.5,1.1,2.5,2.5v4
		C147.8,213.9,146.7,215,145.4,215z"/>
</g>
</svg>
