<?xml version="1.0" encoding="utf-8"?>
<!-- Generator: Adobe Illustrator 24.0.1, SVG Export Plug-In . SVG Version: 6.00 Build 0)  -->
<svg version="1.1" id="Layer_1" xmlns="http://www.w3.org/2000/svg" xmlns:xlink="http://www.w3.org/1999/xlink" x="0px" y="0px"
	 viewBox="0 0 300 300" style="enable-background:new 0 0 300 300;" xml:space="preserve">
<style type="text/css">
	.st0{fill:#6897BB;}
	.st1{display:none;}
	.st2{display:inline;}
	.st3{fill:#FFFFFF;}
	.st4{display:inline;fill:#FFFFFF;}
	.st5{display:inline;fill:#FFFFFF;stroke:#6897BB;stroke-width:4.8013;stroke-miterlimit:10;}
</style>
<g>
	<circle class="st0" cx="150" cy="150" r="146"/>
</g>
<g class="st1">
	<g class="st2">
		<path class="st0" d="M131,199.7c-6.4,0-11.6-5.2-11.6-11.6V63c0-6.4,5.2-11.6,11.6-11.6H188c6.4,0,11.6,5.2,11.6,11.6V188
			c0,6.4-5.2,11.6-11.6,11.6H131z"/>
		<path class="st3" d="M188,53.7c5.1,0,9.3,4.2,9.3,9.3V188c0,5.1-4.2,9.3-9.3,9.3H131c-5.1,0-9.3-4.2-9.3-9.3V63
			c0-5.1,4.2-9.3,9.3-9.3H188 M188,49H131c-7.7,0-14,6.3-14,14V188c0,7.7,6.3,14,14,14H188c7.7,0,14-6.3,14-14V63
			C202,55.3,195.7,49,188,49L188,49z"/>
	</g>
	<g class="st2">
		<path class="st0" d="M61,227c-5.5,0-10-4.5-10-10v-89c0-5.5,4.5-10,10-10h61c5.5,0,10,4.5,10,10v89c0,5.5-4.5,10-10,10H61z"/>
		<path class="st3" d="M122,120c4.4,0,8,3.6,8,8v89c0,4.4-3.6,8-8,8H61c-4.4,0-8-3.6-8-8v-89c0-4.4,3.6-8,8-8H122 M122,116H61
			c-6.6,0-12,5.4-12,12v89c0,6.6,5.4,12,12,12h61c6.6,0,12-5.4,12-12v-89C134,121.4,128.6,116,122,116L122,116z"/>
	</g>
	<g class="st2">
		<path class="st0" d="M156.1,231.2c-5.1,0-9.2-4.1-9.2-9.2v-50.9c0-5.1,4.1-9.2,9.2-9.2h89.9c5.1,0,9.2,4.1,9.2,9.2v50.9
			c0,5.1-4.1,9.2-9.2,9.2H156.1z"/>
		<path class="st3" d="M245.9,163.7c4.1,0,7.4,3.3,7.4,7.4v50.9c0,4.1-3.3,7.4-7.4,7.4h-89.9c-4.1,0-7.4-3.3-7.4-7.4v-50.9
			c0-4.1,3.3-7.4,7.4-7.4H245.9 M245.9,160h-89.9c-6.1,0-11.1,5-11.1,11.1v50.9c0,6.1,5,11.1,11.1,11.1h89.9c6.1,0,11.1-5,11.1-11.1
			v-50.9C257,165,252,160,245.9,160L245.9,160z"/>
	</g>
	<g class="st2">
		<rect x="63" y="131" class="st3" width="16" height="16"/>
	</g>
	<g class="st2">
		<rect x="101" y="131" class="st3" width="16" height="79"/>
	</g>
	<g class="st2">
		<rect x="63" y="152" class="st3" width="16" height="16"/>
	</g>
	<g class="st2">
		<rect x="208" y="170" class="st3" width="16" height="16"/>
	</g>
	<g class="st2">
		<rect x="229" y="170" class="st3" width="16" height="16"/>
	</g>
	<g class="st2">
		<rect x="229" y="191" class="st3" width="16" height="16"/>
	</g>
	<g class="st2">
		<rect x="63" y="173" class="st3" width="16" height="16"/>
	</g>
	<g class="st2">
		<rect x="63" y="194" class="st3" width="16" height="16"/>
	</g>
	<g class="st2">
		<rect x="141" y="63" class="st3" width="16" height="16"/>
	</g>
	<g class="st2">
		<rect x="162" y="63" class="st3" width="16" height="16"/>
	</g>
	<g class="st2">
		<rect x="141" y="84" class="st3" width="16" height="16"/>
	</g>
	<g class="st2">
		<rect x="162" y="84" class="st3" width="16" height="16"/>
	</g>
</g>
<g class="st1">
	<circle class="st4" cx="74.4" cy="98.4" r="26.4"/>
	<circle class="st4" cx="228" cy="98.4" r="26.4"/>
	<circle class="st4" cx="150" cy="115.2" r="32.4"/>
	<path class="st5" d="M48,193.2L42,174v16.8c0,0-12,0-12-9.6c0,0-13.2-45.6,28.8-50.4h42c0,0,13.2,3.6,16.8,12c0,0-36,4.8-34.8,52.8
		C82.8,195.6,54,195.6,48,193.2z"/>
	<path class="st5" d="M252,193.2l6-19.2v16.8c0,0,12,0,12-9.6c0,0,13.2-45.6-28.8-50.4h-42c0,0-13.2,3.6-16.8,12
		c0,0,36,4.8,34.8,52.8C217.2,195.6,246,195.6,252,193.2z"/>
	<path class="st5" d="M117.6,225.6c0,0,43.2,6,64.8,0l6-21.6v20.4c0,0,15.6-3.6,18-8.4c0,0,14.4-68.4-52.8-62.4h-16.8
		c0,0-51.6-4.8-43.2,64.8c0,0,8.4,4.8,14.4,4.8l9.6-15.6V225.6z"/>
</g>
<g>
	<polygon class="st3" points="247.3,97.1 54.5,97.1 54.5,86.8 150.9,51 247.3,86 	"/>
	<rect x="75" y="109" class="st3" width="41.8" height="69.9"/>
	<rect x="129.6" y="109" class="st3" width="41.8" height="69.9"/>
	<rect x="184.2" y="109" class="st3" width="41.8" height="69.9"/>
	<rect x="45.2" y="191.7" class="st3" width="210.7" height="11.1"/>
	<rect x="45.2" y="208.8" class="st3" width="210.7" height="16.2"/>
</g>
</svg>
