<?xml version="1.0" encoding="utf-8"?>
<!-- Generator: Adobe Illustrator 24.0.1, SVG Export Plug-In . SVG Version: 6.00 Build 0)  -->
<svg version="1.1" id="Layer_1" xmlns="http://www.w3.org/2000/svg" xmlns:xlink="http://www.w3.org/1999/xlink" x="0px" y="0px"
	 viewBox="0 0 600 114" style="enable-background:new 0 0 600 114;" xml:space="preserve">
<style type="text/css">
	.st0{fill:#0C0C0C;}
	.st1{fill:#0C0C0C;stroke:#FFFFFF;stroke-width:0.8973;stroke-miterlimit:10;}
	.st2{fill:none;stroke:#0C0C0C;stroke-width:0.8973;stroke-miterlimit:10;}
</style>
<g>
	<g>
		<path class="st0" d="M170.4,88.8l-7.4-8.3c-5.5,5.2-12.3,9.4-20.9,9.4c-10.2,0-17.9-7.7-17.9-17.5c0-8.9,6.6-15.5,13.4-20.5
			l-4.4-5c-3.2-3.6-5.6-7.6-5.6-12c0-7.5,6.6-13.4,14.4-13.4c8.3,0,14,5.9,14,13.3c0,7.2-6.3,12.8-12.8,17.5L163.4,75
			c2.3-2.4,4.3-4.8,6-7.1l2.7,2.6c-1.9,2.3-4,4.8-6.3,7.2l9.8,11.1L170.4,88.8L170.4,88.8z M140,54.6c-6.4,4.8-11.5,10.3-11.5,17.5
			c0,7.5,5.3,14,13.3,14c7.5,0,13.7-3.6,18.8-8.4L140,54.6z M142,25.2c-5.5,0-10.3,3.5-10.3,9.4c0,3.5,1.2,6.3,4.4,9.9l4.6,5.2
			c5.9-4.3,11.1-9,11.1-14.5C151.9,29,148,25.2,142,25.2z"/>
	</g>
</g>
<g>
	<path class="st1" d="M43.2,89.9c-16.2,0-32.5-13.2-32.5-34.2c0-19.2,13.8-34.2,32.9-34.2c12,0,19.2,4.1,24.5,10.4l-6.7,6
		c-4.5-4.7-10.4-7.4-17.6-7.4c-12.9,0-23.6,10-23.6,25.2c0,17.1,13.1,25.5,23.2,25.5c6.4,0,13.8-2.5,19.4-9.2l6.5,5.6
		C64.3,84.5,54.8,89.9,43.2,89.9z"/>
	<path class="st1" d="M92.4,31.1v21.2h22.2v8.5H92.4v28.1h-9.1V22.6H116v8.5L92.4,31.1L92.4,31.1z"/>
</g>
<g>
	<g>
		<path class="st1" d="M208.1,89.4c-16.8,0-33.6-13.7-33.6-34.2S189.9,21,208.2,21c10.7,0,18.1,3.5,24.4,9l-5.5,6.7
			c-5.7-4.7-11.4-6.8-19.1-6.8c-13.3,0-24.1,10.1-24.1,25.4c0,13.4,11,25.2,24.4,25.2c9.5,0,17.2-5.4,19.5-13.3h-20v-8.5h30.5
			C238.4,76.6,224.1,89.4,208.1,89.4z"/>
	</g>
</g>
<g>
	<g>
		<g>
			<path class="st0" d="M374.1,78.2h-5.6l-0.8,2.2h-3l4.9-12.6h3.4l4.9,12.6H375L374.1,78.2z M369.2,75.9h4.2l-2.1-5.8L369.2,75.9z"
				/>
			<path class="st0" d="M384.7,67.7h6.6c2.4,0,3.6,1.5,3.6,3.2c0,1.6-1,2.6-2.2,2.9c1.3,0.2,2.4,1.5,2.4,3.1c0,1.9-1.3,3.4-3.7,3.4
				h-6.8V67.7H384.7z M390.7,72.8c0.9,0,1.5-0.6,1.5-1.4s-0.6-1.4-1.5-1.4h-3.4v2.8H390.7z M390.8,78.1c1,0,1.6-0.6,1.6-1.5
				c0-0.8-0.6-1.5-1.6-1.5h-3.5v3H390.8z"/>
			<path class="st0" d="M408.9,67.5c3.8,0,6.6,2.7,6.6,6.5s-2.8,6.5-6.6,6.5c-3.8,0-6.6-2.7-6.6-6.5S405.1,67.5,408.9,67.5z
				 M408.9,69.9c-2.3,0-3.8,1.8-3.8,4.1c0,2.3,1.5,4.1,3.8,4.1s3.8-1.8,3.8-4.1C412.7,71.7,411.2,69.9,408.9,69.9z"/>
			<path class="st0" d="M429.2,67.5c2.6,0,4.3,1.3,5.2,2.8l-2.2,1.2c-0.6-0.9-1.7-1.6-3-1.6c-2.3,0-4,1.8-4,4.1s1.7,4.1,4,4.1
				c1.2,0,2.2-0.5,2.7-1v-1.5h-3.4v-2.3h6v4.8c-1.3,1.4-3.1,2.4-5.4,2.4c-3.7,0-6.7-2.6-6.7-6.5C422.5,70.1,425.5,67.5,429.2,67.5z"
				/>
			<path class="st0" d="M450.3,78.2h-5.6l-0.8,2.2h-3l4.9-12.6h3.4l4.9,12.6h-2.9L450.3,78.2z M445.3,75.9h4.2l-2.1-5.8L445.3,75.9z
				"/>
			<path class="st0" d="M460.8,67.7h5c4,0,6.7,2.5,6.7,6.3s-2.7,6.3-6.7,6.3h-5V67.7z M465.8,78c2.5,0,4-1.8,4-3.9c0-2.2-1.4-4-4-4
				h-2.3V78H465.8z"/>
			<path class="st0" d="M486.1,67.5c3.8,0,6.6,2.7,6.6,6.5s-2.8,6.5-6.6,6.5c-3.8,0-6.6-2.7-6.6-6.5S482.3,67.5,486.1,67.5z
				 M486.1,69.9c-2.3,0-3.8,1.8-3.8,4.1c0,2.3,1.5,4.1,3.8,4.1s3.8-1.8,3.8-4.1C489.9,71.7,488.4,69.9,486.1,69.9z"/>
			<path class="st0" d="M500.8,76.5c0.9,0.9,2.3,1.7,4,1.7c1.5,0,2.2-0.7,2.2-1.4c0-0.9-1.1-1.3-2.6-1.6c-2.1-0.5-4.7-1-4.7-3.9
				c0-2.1,1.8-3.8,4.8-3.8c2,0,3.7,0.6,4.9,1.8l-1.5,2c-1-0.9-2.4-1.4-3.6-1.4s-1.9,0.5-1.9,1.3c0,0.9,1.1,1.1,2.5,1.5
				c2.1,0.5,4.7,1.1,4.7,3.9c0,2.3-1.6,4-5.1,4c-2.4,0-4.2-0.8-5.4-2L500.8,76.5z"/>
		</g>
	</g>
	<g>
		<path class="st0" d="M306.9,49.4c-5.4,0-10.2-4.4-10.2-10.8c0-5.8,4.4-10.8,10.2-10.8c3.4,0,5.9,1.3,7.6,3.3l-1.5,1.3
			c-1.5-1.7-3.5-2.7-6.1-2.7c-4.6,0-8.1,3.9-8.1,8.8c0,5.4,3.9,9,8.1,9c2.7,0,4.7-1.1,6.5-3.1l1.4,1.2
			C313.3,47.6,310.6,49.4,306.9,49.4z"/>
		<path class="st0" d="M326.4,49.1V48c-1,0.9-2.4,1.5-4,1.5c-2.6,0-4.3-1.5-4.3-3.8c0-2.7,2.5-4.2,6.2-4.2h2.1V41
			c0-1.8-1.2-2.3-2.9-2.3c-1.4,0-2.6,0.2-3.5,0.7l-0.7-1.4c1.1-0.6,2.6-0.9,4.1-0.9c3.2,0,4.8,1.2,4.8,3.5v8.5L326.4,49.1
			L326.4,49.1z M326.4,43h-1.6c-3.1,0-4.8,0.7-4.8,2.6c0,1.4,1.3,2.1,2.7,2.1c1.5,0,2.6-0.6,3.7-1.4L326.4,43L326.4,43z"/>
		<path class="st0" d="M339.1,39.5c-0.5-0.5-1.1-0.7-1.7-0.7c-1.5,0-2.8,1.7-2.8,3.7V49h-1.9V37.3h1.9v1.6c0.7-1.1,1.7-1.9,3.1-1.9
			c0.9,0,1.6,0.3,2.3,0.9L339.1,39.5z"/>
		<path class="st0" d="M343.2,34.4v-2.7h1.9v2.7H343.2z M343.2,49.1V37.4h1.9v11.7H343.2z"/>
		<path class="st0" d="M358.3,49.1v-1.9c-0.6,1.1-2.2,2.2-4,2.2c-3.2,0-5.3-2.9-5.3-6.2c0-3.7,2.4-6.2,5.5-6.2c1.7,0,3.2,1,3.9,2.2
			V28.1h1.9V49h-2V49.1z M354.6,38.8c-2.3,0-3.7,1.9-3.7,4.4c0,2.4,1.3,4.5,3.7,4.5c2.3,0,3.8-2.1,3.8-4.5
			C358.4,41,356.9,38.8,354.6,38.8z"/>
		<path class="st0" d="M366,43.3c0.1,2.5,1.6,4.4,4.1,4.4c1.7,0,2.9-0.6,4-1.6l1.2,1.2c-1.1,1.1-2.7,2.1-5.2,2.1c-3.7,0-6-2.7-6-6.3
			c0-3.2,2.2-6,5.8-6c3.6,0,5.5,2.9,5.6,6.2L366,43.3L366,43.3z M369.9,38.7c-2.2,0-3.5,1.3-3.8,3.1h7.4
			C373.2,40.2,371.9,38.7,369.9,38.7z"/>
		<path class="st0" d="M388.1,30v7.5h7.1v1.8h-7.1V49h-2V28.1h9.8v1.8h-7.8V30z"/>
		<path class="st0" d="M400,34.4v-2.7h1.9v2.7H400z M400,49.1V37.4h1.9v11.7H400z"/>
		<path class="st0" d="M410.4,49.2c-2.1,0-3.4-0.8-3.4-3.1v-6.9h-1.7v-1.7h1.7V32h1.9v5.5h2.2v1.7h-2.2v6.9c0,0.9,0.5,1.4,1.6,1.4
			h0.6v1.7C411.1,49.1,410.5,49.2,410.4,49.2z"/>
		<path class="st0" d="M418.9,49.2c-2.1,0-3.4-0.8-3.4-3.1v-6.9h-1.7v-1.7h1.7V32h1.9v5.5h2.2v1.7h-2.2v6.9c0,0.9,0.5,1.4,1.6,1.4
			h0.6v1.7C419.5,49.1,418.9,49.2,418.9,49.2z"/>
		<path class="st0" d="M424.6,43.3c0.1,2.5,1.6,4.4,4.1,4.4c1.7,0,2.9-0.6,4-1.6l1.2,1.2c-1.1,1.1-2.7,2.1-5.2,2.1
			c-3.7,0-6-2.7-6-6.3c0-3.2,2.2-6,5.8-6c3.6,0,5.5,2.9,5.6,6.2L424.6,43.3L424.6,43.3z M428.4,38.7c-2.2,0-3.5,1.3-3.8,3.1h7.4
			C431.8,40.2,430.5,38.7,428.4,38.7z"/>
		<path class="st0" d="M457.6,49.1l-2-2.2c-1.8,1.5-3.8,2.6-6.3,2.6c-3.2,0-5.8-2.4-5.8-5.4c0-2.8,2.1-5,4.1-6.4l-1.3-1.4
			c-0.9-1.1-1.7-2.3-1.7-3.8c0-2.5,2.2-4.5,4.7-4.5c2.8,0,4.7,1.9,4.7,4.5c0,2.4-2,4.1-3.8,5.5l5.7,6.4c0.7-0.7,1.3-1.4,1.9-2.2
			l1.3,1.3c-0.6,0.8-1.3,1.6-2.1,2.3l3.1,3.5h-2.5V49.1z M448.7,38.9c-1.7,1.2-3.3,2.8-3.3,4.9s1.6,3.8,3.8,3.8
			c2.1,0,3.8-0.9,5.3-2.1L448.7,38.9z M449.4,29.6c-1.5,0-2.8,1.1-2.8,2.7c0,1.1,0.4,1.9,1.4,3l1.1,1.3c1.3-0.9,3-2.4,3-4.1
			C452.1,30.7,451.1,29.6,449.4,29.6z"/>
		<path class="st0" d="M480.1,49.4c-5.8,0-10.8-4.3-10.8-10.8c0-6.3,4.9-10.8,10.8-10.8c3.3,0,5.7,1.1,7.7,3.1l-1.3,1.5
			c-1.9-1.9-3.8-2.6-6.5-2.6c-4.9,0-8.7,3.7-8.7,8.9c0,5.1,3.8,8.8,8.8,8.8c3.6,0,6.6-2.2,7.3-5.4h-6.9v-1.9h9.2
			C489.7,45.4,485.3,49.4,480.1,49.4z"/>
		<path class="st0" d="M500.1,39.5c-0.5-0.5-1.1-0.7-1.7-0.7c-1.5,0-2.8,1.7-2.8,3.7V49h-1.9V37.3h1.9v1.6c0.7-1.1,1.7-1.9,3.1-1.9
			c0.9,0,1.6,0.3,2.3,0.9L500.1,39.5z"/>
		<path class="st0" d="M509,49.4c-3.4,0-6.1-2.5-6.1-6.2c0-3.4,2.5-6.1,6-6.1c3.5,0,6.1,2.7,6.1,6.1C515.1,46.7,512.5,49.4,509,49.4
			z M509,38.8c-2.4,0-4.1,1.9-4.1,4.4c0,2.6,1.7,4.5,4.1,4.5c2.6,0,4.2-1.9,4.2-4.5C513.2,40.6,511.4,38.8,509,38.8z"/>
		<path class="st0" d="M526.9,49.1v-7.4c0-1.7-0.9-2.9-2.7-2.9c-2.2,0-3.3,1.9-3.3,3.5V49H519V37.3h1.9V39c0.7-1.3,2.1-2,3.6-2
			c2.6,0,4.3,1.7,4.3,4.3V49L526.9,49.1L526.9,49.1z"/>
		<path class="st0" d="M541.8,49.1v-1.9c-0.6,1.1-2.2,2.2-4,2.2c-3.2,0-5.3-2.9-5.3-6.2c0-3.7,2.4-6.2,5.5-6.2c1.7,0,3.2,1,3.9,2.2
			V28.1h1.9V49h-2V49.1z M538.1,38.8c-2.3,0-3.7,1.9-3.7,4.4c0,2.4,1.3,4.5,3.7,4.5c2.3,0,3.8-2.1,3.8-4.5
			C541.9,41,540.4,38.8,538.1,38.8z"/>
		<path class="st0" d="M553.7,49.4c-3.4,0-6.1-2.5-6.1-6.2c0-3.4,2.5-6.1,6-6.1s6.1,2.7,6.1,6.1C559.8,46.7,557.1,49.4,553.7,49.4z
			 M553.7,38.8c-2.4,0-4.1,1.9-4.1,4.4c0,2.6,1.7,4.5,4.1,4.5c2.6,0,4.2-1.9,4.2-4.5C557.9,40.6,556.1,38.8,553.7,38.8z"/>
		<path class="st0" d="M571.6,49.1v-7.4c0-1.7-0.9-2.9-2.7-2.9c-2.2,0-3.3,1.9-3.3,3.5V49h-1.9V37.3h1.9V39c0.7-1.3,2.1-2,3.6-2
			c2.6,0,4.3,1.7,4.3,4.3V49L571.6,49.1L571.6,49.1z"/>
		<path class="st0" d="M585.4,49.1V48c-1,0.9-2.4,1.5-4,1.5c-2.6,0-4.3-1.5-4.3-3.8c0-2.7,2.5-4.2,6.2-4.2h2.1V41
			c0-1.8-1.2-2.3-2.9-2.3c-1.4,0-2.6,0.2-3.5,0.7l-0.7-1.4c1.1-0.6,2.6-0.9,4.1-0.9c3.2,0,4.8,1.2,4.8,3.5v8.5L585.4,49.1
			L585.4,49.1z M585.4,43h-1.6c-3.1,0-4.8,0.7-4.8,2.6c0,1.4,1.3,2.1,2.7,2.1c1.5,0,2.6-0.6,3.7-1.4L585.4,43L585.4,43z"/>
	</g>
</g>
<line class="st2" x1="266.2" y1="7.6" x2="266.2" y2="103.9"/>
</svg>
