<?xml version="1.0" encoding="utf-8"?>
<!-- Generator: Adobe Illustrator 24.0.1, SVG Export Plug-In . SVG Version: 6.00 Build 0)  -->
<svg version="1.1" id="Layer_1" xmlns="http://www.w3.org/2000/svg" xmlns:xlink="http://www.w3.org/1999/xlink" x="0px" y="0px"
	 viewBox="0 0 600 203" style="enable-background:new 0 0 600 203;" xml:space="preserve">
<style type="text/css">
	.st0{fill:#0C0C0C;}
	.st1{fill:#0C0C0C;stroke:#FFFFFF;stroke-width:2.2314;stroke-miterlimit:10;}
</style>
<g>
	<g>
		<path class="st0" d="M404.8,181.1l-18.3-20.5c-13.8,12.9-30.7,23.3-51.9,23.3c-25.3,0-44.5-19.2-44.5-43.6
			c0-22.1,16.5-38.6,33.4-51l-11.1-12.4c-7.9-9-14-19-14-29.8c0-18.7,16.5-33.4,35.9-33.4c20.5,0,34.8,14.7,34.8,33.2
			c0,17.8-15.6,31.8-31.8,43.6l50.1,56.5c5.6-5.9,10.6-12,14.9-17.6l6.8,6.5c-4.7,5.6-9.9,12-15.6,17.8l24.4,27.5L404.8,181.1
			L404.8,181.1z M329.4,96c-15.8,12-28.7,25.5-28.7,43.6c0,18.7,13.1,34.8,33,34.8c18.7,0,34.1-9,46.7-20.8L329.4,96z M334.4,22.9
			c-13.8,0-25.5,8.8-25.5,23.5c0,8.8,2.9,15.6,11.1,24.6l11.5,12.9C346.2,73.3,359,61.5,359,47.8C359,32.3,349.3,22.9,334.4,22.9z"
			/>
	</g>
</g>
<g>
	<path class="st1" d="M88.6,183.8c-40.2,0-80.8-32.7-80.8-85.1c0-47.6,34.3-85.1,81.7-85.1c29.8,0,47.6,10.2,61,25.7l-16.7,14.9
		C122.5,42.5,108.1,35.7,90,35.7c-32.1,0-58.7,24.8-58.7,62.5c0,42.5,32.5,63.4,57.8,63.4c15.8,0,34.3-6.3,48.3-22.8l16.3,14
		C141,170.5,117.5,183.8,88.6,183.8z"/>
	<path class="st1" d="M211,37.5v52.6h55.3v21.2H211v69.8h-22.6V16.3h81.3v21.2H211z"/>
</g>
<g>
	<g>
		<path class="st1" d="M498.6,182.6c-41.8,0-83.5-34.1-83.5-85.1s38.4-85.1,83.8-85.1c26.6,0,44.9,8.6,60.7,22.4l-13.8,16.7
			c-14.2-11.7-28.2-16.9-47.4-16.9c-33.2,0-59.8,25.1-59.8,63.2c0,33.4,27.3,62.8,60.7,62.8c23.7,0,42.7-13.3,48.5-33.2h-49.7V106
			H574C574.1,150.8,538.4,182.6,498.6,182.6z"/>
	</g>
</g>
</svg>
