<?xml version="1.0" encoding="utf-8"?>
<!-- Generator: Adobe Illustrator 24.0.1, SVG Export Plug-In . SVG Version: 6.00 Build 0)  -->
<svg version="1.1" id="Layer_1" xmlns="http://www.w3.org/2000/svg" xmlns:xlink="http://www.w3.org/1999/xlink" x="0px" y="0px"
	 viewBox="0 0 600 194" style="enable-background:new 0 0 600 194;" xml:space="preserve">
<style type="text/css">
	.st0{fill:#0C0C0C;}
	.st1{fill:#0C0C0C;stroke:#FFFFFF;stroke-width:2.1863;stroke-miterlimit:10;}
</style>
<g>
	<g>
		<path class="st0" d="M314.7,80.7c-8.2-9.1-15.9-19-15.9-32.5c0-19.5,14.6-32.7,33.8-32.7c20.4,0,33.2,13.7,33.2,31.6
			c0,18.4-12.4,27.4-35.8,43.4l56.2,60.8c6-6.2,11.5-12.8,16.8-20.1l3.8,2.9c-5.5,7.5-11.3,14.6-17.5,20.6l23.2,25h-6.4L386,158
			c-15.5,15-33,24.3-52.2,24.3c-25.9,0-42.9-19-42.9-42.3c0-19.2,13.1-36.7,32.3-50.2L314.7,80.7z M326.2,93.1
			c-18.1,12.8-30.5,29-30.5,46.9c0,20.8,15.3,37.8,38.1,37.8c18.4,0,34.5-9.1,49.1-23.2L326.2,93.1z M361,46.9c0-15-11.3-27-28.3-27
			c-16.4,0-29,11.5-29,28.3c0,12.2,7.1,21.2,14.6,29.4l8.6,9.5C348.8,72.6,361,64.2,361,46.9z"/>
	</g>
</g>
<g>
	<path class="st1" d="M92.8,182.3c-39.4,0-79.2-32.1-79.2-83.4c0-46.7,33.6-83.4,80.1-83.4c29.2,0,46.7,10,59.7,25.2L137,55.3
		c-11.1-11.5-25.2-18.1-42.9-18.1c-31.4,0-57.5,24.3-57.5,61.3c0,41.6,31.9,62.2,56.6,62.2c15.5,0,33.6-6.2,47.3-22.3l15.9,13.7
		C144.1,169.2,121.1,182.3,92.8,182.3z"/>
	<path class="st1" d="M212.7,38.9v51.5h54.2v20.8h-54.2v68.4h-22.1V18.1h79.6v20.8L212.7,38.9L212.7,38.9z"/>
</g>
<g>
	<g>
		<path class="st1" d="M494.5,181.1c-40.9,0-81.9-33.4-81.9-83.4s37.6-83.4,82.1-83.4c26.1,0,44,8.4,59.5,21.9l-13.5,16.4
			C526.8,41.1,513,36,494.2,36c-32.5,0-58.6,24.6-58.6,61.9c0,32.7,26.8,61.5,59.5,61.5c23.2,0,41.8-13.1,47.6-32.5H494v-20.8h74.3
			C568.4,149.9,533.4,181.1,494.5,181.1z"/>
	</g>
</g>
</svg>
